<svg width="23" height="42" viewBox="0 0 23 42" fill="none" xmlns="http://www.w3.org/2000/svg">
<path d="M7.22461 30.873L7.40625 33.5742H7.22461C6.98242 32.7656 6.63672 32.1836 6.1875 31.8281C5.73828 31.4727 5.19922 31.2949 4.57031 31.2949C4.04297 31.2949 3.56641 31.4297 3.14062 31.6992C2.71484 31.9648 2.37891 32.3906 2.13281 32.9766C1.89062 33.5625 1.76953 34.291 1.76953 35.1621C1.76953 35.8809 1.88477 36.5039 2.11523 37.0312C2.3457 37.5586 2.69141 37.9629 3.15234 38.2441C3.61719 38.5254 4.14648 38.666 4.74023 38.666C5.25586 38.666 5.71094 38.5566 6.10547 38.3379C6.5 38.1152 6.93359 37.6758 7.40625 37.0195L7.58789 37.1367C7.18945 37.8438 6.72461 38.3613 6.19336 38.6895C5.66211 39.0176 5.03125 39.1816 4.30078 39.1816C2.98438 39.1816 1.96484 38.6934 1.24219 37.7168C0.703125 36.9902 0.433594 36.1348 0.433594 35.1504C0.433594 34.3574 0.611328 33.6289 0.966797 32.9648C1.32227 32.3008 1.81055 31.7871 2.43164 31.4238C3.05664 31.0566 3.73828 30.873 4.47656 30.873C5.05078 30.873 5.61719 31.0137 6.17578 31.2949C6.33984 31.3809 6.45703 31.4238 6.52734 31.4238C6.63281 31.4238 6.72461 31.3867 6.80273 31.3125C6.9043 31.207 6.97656 31.0605 7.01953 30.873H7.22461ZM9.95508 30.668V34.5938C10.3887 34.1172 10.7324 33.8125 10.9863 33.6797C11.2402 33.543 11.4941 33.4746 11.748 33.4746C12.0527 33.4746 12.3145 33.5586 12.5332 33.7266C12.752 33.8945 12.9141 34.1582 13.0195 34.5176C13.0938 34.7676 13.1309 35.2246 13.1309 35.8887V37.7871C13.1309 38.127 13.1582 38.3594 13.2129 38.4844C13.252 38.5781 13.3184 38.6523 13.4121 38.707C13.5059 38.7617 13.6777 38.7891 13.9277 38.7891V39H11.291V38.7891H11.4141C11.6641 38.7891 11.8379 38.752 11.9355 38.6777C12.0332 38.5996 12.1016 38.4863 12.1406 38.3379C12.1523 38.2754 12.1582 38.0918 12.1582 37.7871V35.8887C12.1582 35.3027 12.127 34.918 12.0645 34.7344C12.0059 34.5508 11.9102 34.4141 11.7773 34.3242C11.6445 34.2305 11.4844 34.1836 11.2969 34.1836C11.1055 34.1836 10.9062 34.2344 10.6992 34.3359C10.4922 34.4375 10.2441 34.6426 9.95508 34.9512V37.7871C9.95508 38.1543 9.97461 38.3828 10.0137 38.4727C10.0566 38.5625 10.1328 38.6387 10.2422 38.7012C10.3555 38.7598 10.5488 38.7891 10.8223 38.7891V39H8.16211V38.7891C8.40039 38.7891 8.58789 38.752 8.72461 38.6777C8.80273 38.6387 8.86523 38.5645 8.91211 38.4551C8.95898 38.3457 8.98242 38.123 8.98242 37.7871V32.9297C8.98242 32.3164 8.9668 31.9395 8.93555 31.7988C8.9082 31.6582 8.86328 31.5625 8.80078 31.5117C8.74219 31.4609 8.66211 31.4355 8.56055 31.4355C8.47852 31.4355 8.3457 31.4668 8.16211 31.5293L8.08008 31.3242L9.68555 30.668H9.95508ZM17.4199 38.2266C16.8691 38.6523 16.5234 38.8984 16.3828 38.9648C16.1719 39.0625 15.9473 39.1113 15.709 39.1113C15.3379 39.1113 15.0312 38.9844 14.7891 38.7305C14.5508 38.4766 14.4316 38.1426 14.4316 37.7285C14.4316 37.4668 14.4902 37.2402 14.6074 37.0488C14.7676 36.7832 15.0449 36.5332 15.4395 36.2988C15.8379 36.0645 16.498 35.7793 17.4199 35.4434V35.2324C17.4199 34.6973 17.334 34.3301 17.1621 34.1309C16.9941 33.9316 16.748 33.832 16.4238 33.832C16.1777 33.832 15.9824 33.8984 15.8379 34.0312C15.6895 34.1641 15.6152 34.3164 15.6152 34.4883L15.627 34.8281C15.627 35.0078 15.5801 35.1465 15.4863 35.2441C15.3965 35.3418 15.2773 35.3906 15.1289 35.3906C14.9844 35.3906 14.8652 35.3398 14.7715 35.2383C14.6816 35.1367 14.6367 34.998 14.6367 34.8223C14.6367 34.4863 14.8086 34.1777 15.1523 33.8965C15.4961 33.6152 15.9785 33.4746 16.5996 33.4746C17.0762 33.4746 17.4668 33.5547 17.7715 33.7148C18.002 33.8359 18.1719 34.0254 18.2812 34.2832C18.3516 34.4512 18.3867 34.7949 18.3867 35.3145V37.1367C18.3867 37.6484 18.3965 37.9629 18.416 38.0801C18.4355 38.1934 18.4668 38.2695 18.5098 38.3086C18.5566 38.3477 18.6094 38.3672 18.668 38.3672C18.7305 38.3672 18.7852 38.3535 18.832 38.3262C18.9141 38.2754 19.0723 38.1328 19.3066 37.8984V38.2266C18.8691 38.8125 18.4512 39.1055 18.0527 39.1055C17.8613 39.1055 17.709 39.0391 17.5957 38.9062C17.4824 38.7734 17.4238 38.5469 17.4199 38.2266ZM17.4199 37.8457V35.8008C16.8301 36.0352 16.4492 36.2012 16.2773 36.2988C15.9688 36.4707 15.748 36.6504 15.6152 36.8379C15.4824 37.0254 15.416 37.2305 15.416 37.4531C15.416 37.7344 15.5 37.9688 15.668 38.1562C15.8359 38.3398 16.0293 38.4316 16.248 38.4316C16.5449 38.4316 16.9355 38.2363 17.4199 37.8457ZM21.2695 31.8691V33.6328H22.5234V34.043H21.2695V37.5234C21.2695 37.8711 21.3184 38.1055 21.416 38.2266C21.5176 38.3477 21.6465 38.4082 21.8027 38.4082C21.9316 38.4082 22.0566 38.3691 22.1777 38.291C22.2988 38.209 22.3926 38.0898 22.459 37.9336H22.6875C22.5508 38.3164 22.3574 38.6055 22.1074 38.8008C21.8574 38.9922 21.5996 39.0879 21.334 39.0879C21.1543 39.0879 20.9785 39.0391 20.8066 38.9414C20.6348 38.8398 20.5078 38.6973 20.4258 38.5137C20.3438 38.3262 20.3027 38.0391 20.3027 37.6523V34.043H19.4531V33.8496C19.668 33.7637 19.8867 33.6191 20.1094 33.416C20.3359 33.209 20.5371 32.9648 20.7129 32.6836C20.8027 32.5352 20.9277 32.2637 21.0879 31.8691H21.2695Z" fill="#968E8C"/>
<path fill-rule="evenodd" clip-rule="evenodd" d="M11.4998 3.35413C7.00813 3.35413 3.354 7.00825 3.354 11.5C3.354 15.9917 7.00813 19.6458 11.4998 19.6458C15.9915 19.6458 19.6457 15.9917 19.6457 11.5C19.6457 7.00825 15.9915 3.35413 11.4998 3.35413ZM11.4998 21.0833C6.21559 21.0833 1.9165 16.7842 1.9165 11.5C1.9165 6.21571 6.21559 1.91663 11.4998 1.91663C16.7841 1.91663 21.0832 6.21571 21.0832 11.5C21.0832 16.7842 16.7841 21.0833 11.4998 21.0833Z" fill="#968E8C"/>
<path fill-rule="evenodd" clip-rule="evenodd" d="M15.2834 12.4715C14.7535 12.4715 14.3203 12.0431 14.3203 11.5131C14.3203 10.9832 14.7449 10.5548 15.2739 10.5548H15.2834C15.8134 10.5548 16.2418 10.9832 16.2418 11.5131C16.2418 12.0431 15.8134 12.4715 15.2834 12.4715Z" fill="#968E8C"/>
<path fill-rule="evenodd" clip-rule="evenodd" d="M11.4407 12.4715C10.9107 12.4715 10.4785 12.0431 10.4785 11.5131C10.4785 10.9832 10.9021 10.5548 11.4321 10.5548H11.4407C11.9706 10.5548 12.399 10.9832 12.399 11.5131C12.399 12.0431 11.9706 12.4715 11.4407 12.4715Z" fill="#968E8C"/>
<path fill-rule="evenodd" clip-rule="evenodd" d="M7.59936 12.4715C7.0694 12.4715 6.63623 12.0431 6.63623 11.5131C6.63623 10.9832 7.06077 10.5548 7.59073 10.5548H7.59936C8.12931 10.5548 8.55769 10.9832 8.55769 11.5131C8.55769 12.0431 8.12931 12.4715 7.59936 12.4715Z" fill="#968E8C"/>
</svg>
